<svg width="150" height="150" viewBox="50 12 75 140" fill="none" xmlns="http://www.w3.org/2000/svg">
<mask id="mask0_2_41" style="mask-type:alpha" maskUnits="userSpaceOnUse" x="61" y="48" width="60" height="17">
<rect x="61.1069" y="48.5845" width="59.6586" height="16.4037" fill="#D9D9D9"/>
</mask>
<g mask="url(#mask0_2_41)">
<path d="M106.977 99.5415H97.3829L89.9411 69.651H89.818L82.4992 99.5415H72.7202L61.0961 55.6282H70.7521L77.7019 85.5188H77.8249L85.4513 55.6282L94.4923 55.6282L101.996 85.8878H102.119L109.315 55.6282L118.786 55.6282L106.977 99.5415Z" fill="black"/>
</g>
<path d="M106.977 113.426H97.3829L89.9411 83.5352H89.818L82.4992 113.426H72.7202L61.0961 69.5125H70.7521L77.7019 99.4031H77.8249L85.4513 69.5125H94.4923L101.996 99.7721H102.119L109.315 69.5125L118.786 69.5125L106.977 113.426Z" fill="black"/>
<path d="M42.9083 104.765L44.0182 106.672L38.9406 111.608L38.9548 111.632L45.74 109.629L46.8713 111.572L39.4915 118.961L38.3745 117.043L43.509 112.204L43.4948 112.18L36.674 114.122L35.6281 112.326L40.7719 107.335L40.7577 107.31L33.9134 109.381L32.8177 107.499L42.9083 104.765ZM31.6315 104.588L29.3099 97.4034L31.0859 96.8295L32.7249 101.902L34.7835 101.237L33.2792 96.5814L34.9207 96.051L36.425 100.706L38.7796 99.9455L37.1058 94.7654L38.8818 94.1916L41.2382 101.484L31.6315 104.588ZM28.5858 94.0268L27.6186 86.5383L29.4697 86.2993L30.1525 91.586L32.2981 91.3089L31.6714 86.4569L33.3823 86.2359L34.0089 91.088L36.463 90.771L35.7657 85.3721L37.6168 85.133L38.5984 92.7336L28.5858 94.0268ZM27.5281 83.0649L27.6562 80.8486L31.8346 81.0902L27.8838 76.9102L28.0438 74.1434L31.7969 78.312L38.1448 74.3449L37.984 77.1258L33.2773 79.8989L34.4884 81.2436L37.7351 81.4313L37.607 83.6475L27.5281 83.0649ZM28.5971 71.0145L30.4634 63.6982L32.272 64.1596L30.9543 69.3248L33.0506 69.8596L34.2599 65.119L35.9314 65.5454L34.7221 70.286L37.1197 70.8976L38.4654 65.6227L40.2739 66.0841L38.3795 73.51L28.5971 71.0145ZM31.684 60.4002L32.6241 58.4048L40.547 57.4798L40.559 57.4542L34.4321 54.5675L35.318 52.6872L44.4508 56.9901L43.5047 58.9983L35.6006 59.9166L35.5886 59.9422L41.7027 62.8229L40.8168 64.7032L31.684 60.4002ZM45.2883 52.4487L46.4784 50.8668C46.6711 50.6107 46.8166 50.331 46.9151 50.0276C47.0136 49.7242 47.0395 49.4075 46.9929 49.0775C46.9387 48.7418 46.7997 48.4013 46.5758 48.056C46.352 47.7106 46.0179 47.3708 45.5734 47.0364C45.1666 46.7304 44.7701 46.497 44.3839 46.3362C43.9958 46.1622 43.6169 46.0777 43.2474 46.0828C42.8779 46.0879 42.5195 46.1958 42.1723 46.4065C41.8232 46.6039 41.4844 46.9211 41.1557 47.358L40.2036 48.6235L45.2883 52.4487ZM37.3776 49.2754L39.9957 45.7953C40.3867 45.2755 40.8323 44.8557 41.3323 44.536C41.8381 44.2087 42.3785 44.0077 42.9536 43.9332C43.5344 43.8511 44.1414 43.9066 44.7746 44.0999C45.4134 44.2856 46.0681 44.6306 46.7385 45.135C47.3261 45.577 47.8118 46.0603 48.1956 46.585C48.5794 47.1097 48.836 47.6625 48.9652 48.2433C49.1001 48.8166 49.1001 49.4124 48.9654 50.0306C48.8288 50.6356 48.5281 51.2469 48.0634 51.8646L45.4452 55.3448L37.3776 49.2754ZM56.0905 35.0007C55.9079 34.8194 55.7018 34.6851 55.472 34.5979C55.2365 34.5032 54.9915 34.4508 54.737 34.4409C54.4825 34.4309 54.2279 34.4681 53.9732 34.5524C53.7205 34.6235 53.4846 34.7409 53.2655 34.9045C52.8652 35.2034 52.5846 35.5365 52.4236 35.9038C52.2569 36.2636 52.1855 36.6405 52.2092 37.0346C52.2272 37.4211 52.3188 37.8115 52.4839 38.2059C52.6566 38.5946 52.8754 38.9665 53.1405 39.3215C53.3943 39.6613 53.6803 39.9655 53.9984 40.2338C54.3183 40.489 54.6611 40.6801 55.0266 40.8072C55.392 40.9342 55.7737 40.9727 56.1716 40.9226C56.5639 40.865 56.9602 40.6867 57.3605 40.3878C57.9043 39.9817 58.2031 39.4996 58.2571 38.9417C58.3186 38.3781 58.1802 37.799 57.8421 37.2045L59.5641 35.9185C59.8967 36.4583 60.1209 37.0027 60.2367 37.5516C60.3524 38.1004 60.3626 38.634 60.2673 39.1523C60.172 39.6705 59.973 40.1603 59.6704 40.6216C59.3678 41.0829 58.9673 41.4996 58.4688 41.8719C57.8495 42.3344 57.2116 42.6461 56.5552 42.8069C55.9007 42.9544 55.2625 42.9663 54.6406 42.8425C54.0187 42.7187 53.4282 42.4715 52.869 42.1008C52.3042 41.7226 51.8018 41.2389 51.3618 40.6498C50.9106 40.0456 50.5839 39.419 50.3816 38.77C50.1737 38.1135 50.0958 37.4658 50.148 36.8267C50.2002 36.1877 50.39 35.5754 50.7174 34.9897C51.0523 34.3984 51.5294 33.8715 52.1487 33.409C52.5943 33.0762 53.0615 32.8274 53.5501 32.6625C54.0463 32.4919 54.5423 32.4157 55.0381 32.4336C55.5358 32.4384 56.022 32.5459 56.4966 32.7562C56.9713 32.9664 57.4099 33.2859 57.8125 33.7147L56.0905 35.0007ZM63.7702 33.6739L66.1233 32.5312L63.3603 29.7547L63.3348 29.767L63.7702 33.6739ZM61.2556 28.0102L63.3034 27.0158L71.1097 34.4481L69.0364 35.455L67.3675 33.7661L63.9714 35.4153L64.2413 37.7836L62.2316 38.7595L61.2556 28.0102ZM71.0787 25.9962L68.1804 26.8659L67.644 25.0782L75.5668 22.7009L76.1032 24.4886L73.205 25.3582L75.5701 33.2404L73.4438 33.8784L71.0787 25.9962ZM77.8598 22.4087L85.3572 21.5132L85.5785 23.3665L80.2855 23.9987L80.542 26.1468L85.3998 25.5666L85.6044 27.2795L80.7466 27.8596L81.04 30.3166L86.4454 29.671L86.6668 31.5243L79.0571 32.4332L77.8598 22.4087ZM90.7686 26.1809L93.1942 26.3574C93.7019 26.3943 94.0908 26.3092 94.3611 26.102C94.6314 25.8949 94.785 25.5375 94.8219 25.0298C94.8575 24.5409 94.7562 24.1791 94.5181 23.9444C94.2807 23.7003 93.9081 23.5597 93.4004 23.5228L90.9748 23.3463L90.7686 26.1809ZM88.8859 21.4647L94.3154 21.8598C94.7667 21.8926 95.1655 21.9972 95.5118 22.1737C95.8682 22.3414 96.1641 22.5614 96.3994 22.8337C96.6442 23.1067 96.8201 23.4172 96.9271 23.7652C97.0442 24.1046 97.0887 24.467 97.0606 24.8524C97.0175 25.4447 96.8533 25.9479 96.568 26.3619C96.2921 26.7766 95.8639 27.0762 95.2834 27.2608L95.2813 27.289C95.5485 27.3841 95.7656 27.518 95.9326 27.6908C96.1003 27.8542 96.2326 28.0482 96.3297 28.2726C96.4275 28.4877 96.4906 28.7238 96.5192 28.9811C96.5571 29.239 96.5762 29.4956 96.5766 29.7508C96.5744 29.9114 96.5701 30.1001 96.5637 30.317C96.5574 30.5339 96.5554 30.7559 96.5578 30.9829C96.5696 31.2106 96.5915 31.4295 96.6234 31.6398C96.6655 31.8413 96.7331 32.0164 96.8262 32.1649L94.6121 32.0038C94.5132 31.6753 94.4657 31.289 94.4696 30.8451C94.4736 30.4012 94.4621 29.975 94.4351 29.5666C94.3982 29.0347 94.2664 28.6376 94.0397 28.3754C93.8131 28.1131 93.4224 27.9618 92.8677 27.9215L90.6536 27.7603L90.3673 31.6949L88.1532 31.5338L88.8859 21.4647ZM100.443 22.5456L102.612 23.0181L100.463 32.8826L98.294 32.41L100.443 22.5456ZM105.86 23.9735L107.927 24.7454L109.504 32.5645L109.531 32.5744L111.901 26.2296L113.848 26.957L110.315 36.4145L108.236 35.6377L106.666 27.8367L106.64 27.8269L104.275 34.1584L102.328 33.4311L105.86 23.9735ZM118.82 40.1981C118.213 40.4171 117.651 40.486 117.134 40.4046C116.622 40.3154 116.159 40.1399 115.744 39.8782C115.091 39.4655 114.571 38.9815 114.186 38.4261C113.814 37.8679 113.574 37.2762 113.467 36.6512C113.36 36.0262 113.38 35.3863 113.526 34.7315C113.676 34.0687 113.948 33.4265 114.341 32.8047C114.743 32.1671 115.211 31.6377 115.745 31.2165C116.284 30.7873 116.86 30.4827 117.476 30.3026C118.091 30.1226 118.731 30.0806 119.395 30.1766C120.067 30.2776 120.73 30.5344 121.383 30.9471C121.822 31.2239 122.201 31.5584 122.522 31.9506C122.856 32.3398 123.106 32.7651 123.272 33.2265C123.446 33.6929 123.522 34.1814 123.5 34.6919C123.479 35.2024 123.339 35.7159 123.08 36.2323L121.286 35.0999C121.477 34.5512 121.488 34.0566 121.32 33.6162C121.152 33.1758 120.841 32.8121 120.387 32.5253C119.964 32.2585 119.553 32.1158 119.152 32.0969C118.757 32.0701 118.379 32.1383 118.02 32.3016C117.665 32.4568 117.333 32.6821 117.024 32.9775C116.723 33.2778 116.454 33.6153 116.218 33.99C115.991 34.3486 115.81 34.7245 115.673 35.1176C115.549 35.5077 115.494 35.8961 115.506 36.2829C115.518 36.6696 115.619 37.0398 115.808 37.3934C116.002 37.739 116.311 38.0452 116.733 38.3119C117.355 38.7045 117.931 38.851 118.462 38.7515C119.006 38.6491 119.495 38.3166 119.928 37.7541L118.039 36.5613L118.922 35.1625L122.509 37.4272L119.595 42.0422L118.4 41.2873L118.82 40.1981ZM126.663 42.7014C126.902 42.4605 127.184 42.3428 127.511 42.3482C127.851 42.3536 128.135 42.4691 128.362 42.6949C128.476 42.8077 128.56 42.9374 128.614 43.0838C128.674 43.2236 128.701 43.3701 128.695 43.5234C128.703 43.6767 128.677 43.8301 128.617 43.9837C128.564 44.1305 128.478 44.2642 128.359 44.3846C128.253 44.4917 128.126 44.5721 127.98 44.626C127.833 44.6799 127.683 44.7105 127.53 44.7177C127.377 44.725 127.227 44.7023 127.08 44.6495C126.933 44.5967 126.803 44.5139 126.689 44.4011C126.569 44.2815 126.475 44.1486 126.408 44.0022C126.354 43.8558 126.323 43.7059 126.316 43.5526C126.322 43.3993 126.351 43.2492 126.404 43.1024C126.464 42.9488 126.55 42.8152 126.663 42.7014ZM134.041 59.8825L132.908 57.9903L137.924 52.9912L137.909 52.967L131.149 55.0548L129.994 53.1262L137.282 45.6456L138.422 47.55L133.348 52.452L133.363 52.4763L140.159 50.4491L141.227 52.2322L136.146 57.2869L136.16 57.3112L142.978 55.1555L144.097 57.0235L134.041 59.8825ZM145.334 59.9842L147.698 67.1553L145.926 67.7396L144.257 62.6769L142.202 63.3542L143.734 68.0006L142.095 68.5407L140.564 63.8943L138.214 64.669L139.918 69.8391L138.145 70.4234L135.746 63.145L145.334 59.9842ZM148.44 70.4728L149.493 77.9497L147.645 78.2099L146.902 72.9313L144.759 73.233L145.442 78.0776L143.734 78.3181L143.051 73.4736L140.601 73.8186L141.36 79.2092L139.512 79.4695L138.443 71.8806L148.44 70.4728ZM149.62 81.4488L149.511 83.6661L145.331 83.4613L149.318 87.6063L149.183 90.3744L145.393 86.239L139.08 90.2617L139.216 87.4795L143.899 84.6652L142.676 83.3312L139.427 83.1721L139.536 80.9548L149.62 81.4488ZM148.661 93.499L146.867 100.834L145.054 100.39L146.32 95.2121L144.219 94.6984L143.057 99.4507L141.381 99.0411L142.543 94.2887L140.14 93.701L138.847 98.9891L137.034 98.5458L138.854 91.1013L148.661 93.499ZM145.668 104.165L144.743 106.167L136.827 107.153L136.816 107.179L142.964 110.018L142.093 111.906L132.927 107.673L133.858 105.657L141.755 104.678L141.767 104.653L135.631 101.819L136.502 99.932L145.668 104.165ZM132.13 112.223L130.954 113.815C130.764 114.073 130.621 114.354 130.525 114.659C130.429 114.963 130.406 115.28 130.456 115.609C130.513 115.945 130.655 116.284 130.882 116.627C131.109 116.97 131.447 117.307 131.894 117.637C132.304 117.94 132.702 118.169 133.09 118.327C133.48 118.497 133.859 118.578 134.229 118.569C134.598 118.561 134.956 118.45 135.301 118.236C135.648 118.035 135.984 117.715 136.309 117.275L137.249 116.001L132.13 112.223ZM140.069 115.323L137.483 118.827C137.097 119.351 136.655 119.774 136.158 120.099C135.655 120.431 135.117 120.637 134.542 120.716C133.962 120.804 133.355 120.754 132.72 120.566C132.079 120.387 131.422 120.048 130.747 119.549C130.155 119.113 129.665 118.634 129.276 118.113C128.888 117.592 128.626 117.041 128.492 116.462C128.351 115.89 128.346 115.294 128.475 114.674C128.606 114.068 128.901 113.454 129.36 112.832L131.946 109.328L140.069 115.323ZM121.495 129.774C121.679 129.953 121.886 130.086 122.117 130.171C122.353 130.263 122.599 130.313 122.853 130.321C123.108 130.328 123.362 130.288 123.616 130.202C123.868 130.128 124.103 130.009 124.32 129.843C124.718 129.54 124.995 129.204 125.153 128.836C125.316 128.474 125.384 128.097 125.356 127.703C125.335 127.317 125.239 126.927 125.07 126.534C124.894 126.147 124.672 125.777 124.403 125.425C124.146 125.087 123.857 124.786 123.537 124.521C123.214 124.269 122.87 124.081 122.503 123.957C122.136 123.834 121.754 123.799 121.357 123.853C120.965 123.914 120.571 124.096 120.173 124.399C119.633 124.81 119.339 125.295 119.29 125.854C119.234 126.418 119.378 126.995 119.722 127.587L118.012 128.889C117.675 128.352 117.445 127.81 117.324 127.262C117.203 126.715 117.188 126.181 117.278 125.662C117.369 125.143 117.563 124.651 117.861 124.187C118.159 123.723 118.556 123.302 119.051 122.925C119.666 122.457 120.301 122.139 120.955 121.972C121.608 121.818 122.246 121.8 122.87 121.918C123.493 122.036 124.085 122.278 124.648 122.643C125.217 123.016 125.724 123.495 126.169 124.08C126.626 124.68 126.959 125.303 127.167 125.95C127.381 126.605 127.465 127.252 127.419 127.891C127.373 128.53 127.189 129.145 126.868 129.733C126.538 130.328 126.066 130.859 125.451 131.328C125.009 131.665 124.544 131.918 124.057 132.088C123.563 132.263 123.067 132.344 122.571 132.331C122.074 132.331 121.587 132.228 121.11 132.022C120.633 131.816 120.192 131.501 119.785 131.076L121.495 129.774ZM113.819 131.172L111.475 132.333L114.26 135.088L114.285 135.075L113.819 131.172ZM116.378 136.815L114.338 137.826L106.474 130.456L108.539 129.433L110.221 131.108L113.604 129.432L113.315 127.066L115.317 126.074L116.378 136.815ZM107.192 138.685L110.076 137.769L110.641 139.548L102.757 142.052L102.193 140.273L105.077 139.357L102.586 131.514L104.702 130.842L107.192 138.685ZM99.8238 142.572L92.3336 143.525L92.098 141.674L97.3861 141.001L97.113 138.855L92.2598 139.473L92.0421 137.761L96.8953 137.144L96.583 134.689L91.1827 135.376L90.9472 133.525L98.5496 132.557L99.8238 142.572ZM86.9015 138.909L84.4742 138.758C83.9661 138.727 83.5781 138.816 83.31 139.026C83.0419 139.236 82.8921 139.595 82.8604 140.103C82.83 140.592 82.935 140.953 83.1756 141.185C83.4156 141.427 83.7896 141.563 84.2976 141.595L86.7249 141.746L86.9015 138.909ZM88.8859 143.606L83.4001 143.267C82.9485 143.239 82.5487 143.139 82.2005 142.966C81.8424 142.802 81.5442 142.585 81.306 142.315C81.0584 142.045 80.8793 141.736 80.7686 141.389C80.648 141.051 80.5997 140.689 80.6237 140.304C80.6606 139.711 80.8195 139.206 81.1005 138.789C81.372 138.372 81.7971 138.067 82.3756 137.877L82.3774 137.849C82.1092 137.756 81.8908 137.625 81.722 137.454C81.5526 137.292 81.4182 137.099 81.3187 136.876C81.2187 136.662 81.1531 136.426 81.1219 136.17C81.0812 135.912 81.0594 135.656 81.0564 135.4C81.057 135.24 81.0593 135.051 81.0633 134.834C81.0674 134.617 81.067 134.395 81.0623 134.168C81.0481 133.941 81.0239 133.722 80.9898 133.512C80.9456 133.311 80.8762 133.137 80.7815 132.989L82.9972 133.127C83.0995 133.454 83.1511 133.84 83.1518 134.284C83.1525 134.728 83.1685 135.154 83.1997 135.562C83.2422 136.094 83.3781 136.489 83.6075 136.749C83.8369 137.009 84.2292 137.156 84.7843 137.191L86.9999 137.329L87.245 133.391L89.4606 133.529L88.8334 143.606ZM77.2378 142.637L75.0652 142.181L77.1397 132.3L79.3123 132.757L77.2378 142.637ZM71.8244 141.257L69.7511 140.504L68.1023 132.7L68.0757 132.69L65.7639 139.056L63.8102 138.347L67.2561 128.857L69.3428 129.615L70.9831 137.401L71.0097 137.411L73.3166 131.058L75.2704 131.767L71.8244 141.257ZM58.7182 125.153C59.3227 124.928 59.8839 124.854 60.4019 124.931C60.9149 125.015 61.3798 125.186 61.7967 125.444C62.454 125.851 62.9779 126.33 63.3681 126.882C63.7454 127.437 63.9904 128.026 64.1033 128.65C64.2161 129.274 64.2025 129.914 64.0627 130.57C63.9179 131.234 63.6521 131.879 63.2653 132.504C62.8686 133.146 62.4055 133.679 61.8759 134.106C61.3413 134.54 60.7672 134.85 60.1535 135.035C59.5399 135.221 58.9006 135.269 58.2357 135.179C57.5628 135.084 56.8976 134.834 56.2403 134.427C55.7993 134.154 55.4166 133.823 55.092 133.434C54.7545 133.048 54.5008 132.625 54.3307 132.165C54.1527 131.7 54.072 131.213 54.0886 130.702C54.1053 130.191 54.2408 129.677 54.4951 129.158L56.2989 130.274C56.1136 130.824 56.1069 131.319 56.2788 131.757C56.4507 132.196 56.7652 132.557 57.2221 132.84C57.647 133.103 58.0598 133.242 58.4606 133.257C58.8564 133.28 59.2333 133.208 59.5912 133.042C59.9442 132.883 60.2739 132.655 60.5802 132.356C60.8786 132.053 61.1443 131.713 61.3774 131.337C61.6005 130.976 61.7786 130.598 61.9117 130.204C62.0318 129.813 62.0839 129.424 62.0681 129.037C62.0524 128.651 61.9482 128.281 61.7557 127.929C61.5583 127.586 61.2471 127.282 60.8222 127.02C60.1969 126.633 59.6192 126.492 59.0891 126.596C58.5461 126.703 58.0605 127.04 57.6325 127.607L59.5324 128.782L58.6622 130.189L55.0546 127.958L57.9258 123.316L59.1283 124.06L58.7182 125.153ZM50.8512 122.733C50.6146 122.976 50.333 123.097 50.0064 123.095C49.6663 123.093 49.3814 122.98 49.1516 122.757C49.0367 122.645 48.9516 122.517 48.8962 122.371C48.8342 122.232 48.8055 122.085 48.8099 121.932C48.8011 121.779 48.8256 121.625 48.8834 121.471C48.9346 121.324 49.0194 121.189 49.1377 121.067C49.2428 120.959 49.3683 120.877 49.5142 120.822C49.66 120.767 49.8096 120.735 49.9628 120.726C50.116 120.717 50.2662 120.738 50.4136 120.789C50.561 120.841 50.6922 120.922 50.8071 121.034C50.9287 121.152 51.0239 121.284 51.0927 121.43C51.1481 121.575 51.1802 121.725 51.189 121.878C51.1845 122.032 51.1567 122.182 51.1054 122.329C51.0476 122.484 50.9629 122.618 50.8512 122.733Z" fill="black"/>
</svg>