<svg width="976" height="136" viewBox="0 0 976 136" fill="none" xmlns="http://www.w3.org/2000/svg">
<mask id="mask0_2_49" style="mask-type:alpha" maskUnits="userSpaceOnUse" x="0" y="0" width="975" height="44">
<rect width="975" height="44" fill="#D9D9D9"/>
</mask>
<g mask="url(#mask0_2_49)">
<path d="M69.8922 93.8423H55.3934L44.1475 48.6729H43.9616L32.9016 93.8423H18.124L0.55812 27.4823L15.1499 27.4823L25.6522 72.6517H25.8381L37.3628 27.4823H51.0251L62.3639 73.2094H62.5498L73.4239 27.4823L87.7369 27.4823L69.8922 93.8423ZM94.4598 27.4823L144.09 27.4823V39.7506L109.052 39.7506L109.052 53.9706L141.209 53.9706V65.3094L109.052 65.3094V81.5741L144.834 81.5741L144.834 93.8423L94.4598 93.8423L94.4598 27.4823ZM154.726 27.4823L204.357 27.4823V39.7506L169.318 39.7506V53.9706L201.476 53.9706V65.3094H169.318V81.5741H205.1L205.1 93.8423H154.726L154.726 27.4823ZM214.993 27.4823H229.585V54.9929L255.515 27.4823H273.732L247.801 53.6917L276.241 93.8423H257.932L237.949 64.0082L229.585 72.4658L229.585 93.8423L214.993 93.8423L214.993 27.4823ZM282.066 27.4823L331.697 27.4823V39.7506L296.658 39.7506V53.9706H328.816V65.3094H296.658V81.5741L332.441 81.5741V93.8423L282.066 93.8423V27.4823ZM342.333 27.4823L356.832 27.4823L384.528 72.0011H384.714V27.4823L398.376 27.4823V93.8423L383.785 93.8423L356.181 49.4164H355.995V93.8423H342.333V27.4823ZM425.814 81.5741H438.825C440.932 81.5741 442.977 81.2333 444.96 80.5517C446.942 79.8701 448.708 78.7548 450.257 77.2058C451.806 75.5949 453.045 73.5192 453.975 70.9788C454.904 68.4384 455.369 65.3404 455.369 61.6847C455.369 58.3388 455.028 55.3337 454.347 52.6694C453.727 49.9431 452.674 47.6196 451.187 45.6988C449.7 43.778 447.717 42.3219 445.238 41.3306C442.822 40.2772 439.817 39.7506 436.223 39.7506H425.814V81.5741ZM411.222 27.4823L439.848 27.4823C444.123 27.4823 448.089 28.1639 451.744 29.5271C455.462 30.8902 458.653 32.9349 461.317 35.6612C464.043 38.3874 466.15 41.7953 467.637 45.8847C469.186 49.9741 469.961 54.776 469.961 60.2906C469.961 65.1235 469.341 69.5847 468.102 73.6741C466.863 77.7635 464.973 81.2952 462.432 84.2694C459.954 87.2435 456.825 89.598 453.045 91.3329C449.328 93.0058 444.929 93.8423 439.848 93.8423H411.222V27.4823ZM550.218 49.7882C549.97 48.1153 549.413 46.5972 548.545 45.2341C547.678 43.809 546.594 42.5698 545.292 41.5165C543.991 40.4631 542.504 39.6576 540.831 39.1C539.22 38.4804 537.516 38.1706 535.719 38.1706C532.436 38.1706 529.647 38.8212 527.355 40.1223C525.062 41.3616 523.203 43.0655 521.778 45.2341C520.353 47.3408 519.3 49.7572 518.618 52.4835C517.999 55.2098 517.689 58.029 517.689 60.9411C517.689 63.7294 517.999 66.4556 518.618 69.12C519.3 71.7223 520.353 74.0768 521.778 76.1835C523.203 78.2901 525.062 79.9941 527.355 81.2952C529.647 82.5345 532.436 83.1541 535.719 83.1541C540.181 83.1541 543.65 81.7909 546.129 79.0647C548.669 76.3384 550.218 72.7447 550.776 68.2835H564.903C564.531 72.4349 563.571 76.1835 562.022 79.5294C560.473 82.8752 558.428 85.7254 555.888 88.0799C553.347 90.4344 550.373 92.2313 546.965 93.4705C543.557 94.7097 539.809 95.3293 535.719 95.3293C530.639 95.3293 526.054 94.4619 521.964 92.727C517.937 90.9301 514.529 88.4827 511.741 85.3846C508.952 82.2866 506.815 78.6619 505.328 74.5105C503.841 70.2972 503.097 65.7741 503.097 60.9411C503.097 55.9843 503.841 51.3992 505.328 47.1859C506.815 42.9106 508.952 39.1929 511.741 36.0329C514.529 32.8729 517.937 30.3945 521.964 28.5976C526.054 26.8008 530.639 25.9024 535.719 25.9024C539.375 25.9024 542.814 26.429 546.036 27.4823C549.32 28.5357 552.232 30.0847 554.772 32.1294C557.375 34.1121 559.512 36.5906 561.185 39.5647C562.858 42.5388 563.912 45.9466 564.345 49.7882L550.218 49.7882ZM591.597 68.1905H608.791L600.426 43.84H600.24L591.597 68.1905ZM592.991 27.4823L607.954 27.4823L632.77 93.8423H617.62L612.601 79.0647H587.786L582.581 93.8423L567.897 93.8423L592.991 27.4823ZM644.645 39.7506L624.756 39.7506V27.4823L679.126 27.4823V39.7506H659.237V93.8423H644.645V39.7506ZM686.778 27.4823L736.408 27.4823V39.7506L701.369 39.7506V53.9706L733.527 53.9706V65.3094H701.369V81.5741H737.152V93.8423H686.778V27.4823ZM761.636 57.5023L777.622 57.5023C780.968 57.5023 783.477 56.7588 785.15 55.2717C786.823 53.7847 787.659 51.3682 787.659 48.0223C787.659 44.8004 786.823 42.4768 785.15 41.0517C783.477 39.5647 780.968 38.8212 777.622 38.8212L761.636 38.8212V57.5023ZM747.044 27.4823L782.827 27.4823C785.801 27.4823 788.465 27.978 790.819 28.9694C793.236 29.8988 795.281 31.2 796.954 32.8729C798.688 34.5459 799.99 36.4976 800.857 38.7282C801.787 40.8968 802.251 43.2514 802.251 45.7917C802.251 49.6953 801.415 53.0721 799.742 55.9223C798.131 58.7725 795.467 60.9411 791.749 62.4282V62.6141C793.546 63.1098 795.033 63.8843 796.21 64.9376C797.387 65.929 798.348 67.1372 799.091 68.5623C799.835 69.9254 800.361 71.4435 800.671 73.1164C801.043 74.7894 801.291 76.4623 801.415 78.1352C801.477 79.1886 801.539 80.4278 801.601 81.8529C801.663 83.278 801.756 84.7341 801.879 86.2211C802.065 87.7082 802.313 89.1333 802.623 90.4964C802.995 91.7976 803.521 92.9129 804.203 93.8423H789.611C788.806 91.7356 788.31 89.2262 788.124 86.3141C787.938 83.4019 787.659 80.6137 787.288 77.9494C786.792 74.4796 785.739 71.9392 784.128 70.3282C782.517 68.7172 779.883 67.9117 776.228 67.9117H761.636V93.8423L747.044 93.8423V27.4823ZM814.118 27.4823H828.71V93.8423H814.118V27.4823ZM841.528 27.4823L856.027 27.4823L883.724 72.0011H883.909V27.4823L897.572 27.4823V93.8423H882.98L855.377 49.4164H855.191V93.8423H841.528V27.4823ZM958.375 86.3141C955.772 89.6599 952.891 92.0144 949.731 93.3776C946.571 94.6788 943.38 95.3293 940.158 95.3293C935.078 95.3293 930.492 94.4619 926.403 92.727C922.376 90.9301 918.968 88.4827 916.18 85.3846C913.391 82.2866 911.254 78.6619 909.767 74.5105C908.28 70.2972 907.536 65.7741 907.536 60.9411C907.536 55.9843 908.28 51.3992 909.767 47.1859C911.254 42.9106 913.391 39.1929 916.18 36.0329C918.968 32.8729 922.376 30.3945 926.403 28.5976C930.492 26.8008 935.078 25.9024 940.158 25.9024C943.566 25.9024 946.85 26.429 950.01 27.4823C953.232 28.4737 956.113 29.9608 958.654 31.9435C961.256 33.9263 963.394 36.3737 965.067 39.2859C966.74 42.198 967.762 45.5439 968.134 49.3235H954.192C953.325 45.6059 951.652 42.8176 949.174 40.9588C946.695 39.1 943.69 38.1706 940.158 38.1706C936.874 38.1706 934.086 38.8212 931.794 40.1223C929.501 41.3616 927.642 43.0655 926.217 45.2341C924.792 47.3408 923.739 49.7572 923.057 52.4835C922.438 55.2098 922.128 58.029 922.128 60.9411C922.128 63.7294 922.438 66.4556 923.057 69.12C923.739 71.7223 924.792 74.0768 926.217 76.1835C927.642 78.2901 929.501 79.9941 931.794 81.2952C934.086 82.5345 936.874 83.1541 940.158 83.1541C944.991 83.1541 948.709 81.9458 951.311 79.5294C953.976 77.0509 955.525 73.4882 955.958 68.8411H941.274V57.967L969.156 57.967V93.8423H959.862L958.375 86.3141Z" fill="white"/>
</g>
<path d="M69.8941 114.823H55.3953L44.1494 69.6539H43.9636L32.9036 114.823H18.1259L0.560073 48.4633H15.1518L25.6542 93.6327H25.84L37.3647 48.4633H51.0271L62.3659 94.1903H62.5518L73.4259 48.4633H87.7388L69.8941 114.823ZM94.4618 48.4633L144.092 48.4633V60.7315L109.054 60.7315L109.054 74.9515L141.211 74.9515V86.2903L109.054 86.2903V102.555L144.836 102.555L144.836 114.823L94.4618 114.823L94.4618 48.4633ZM154.728 48.4633H204.359V60.7315L169.32 60.7315V74.9515H201.478V86.2903H169.32V102.555H205.102L205.102 114.823H154.728L154.728 48.4633ZM214.995 48.4633H229.587V75.9739L255.517 48.4633H273.734L247.803 74.6727L276.243 114.823H257.934L237.951 84.9892L229.587 93.4468L229.587 114.823L214.995 114.823L214.995 48.4633ZM282.068 48.4633L331.699 48.4633V60.7315L296.66 60.7315V74.9515H328.818V86.2903H296.66V102.555L332.443 102.555V114.823L282.068 114.823V48.4633ZM342.335 48.4633H356.834L384.53 92.9821H384.716V48.4633L398.378 48.4633V114.823L383.787 114.823L356.183 70.3974H355.997V114.823H342.335V48.4633ZM425.816 102.555H438.827C440.934 102.555 442.979 102.214 444.962 101.533C446.944 100.851 448.71 99.7358 450.259 98.1868C451.808 96.5758 453.047 94.5001 453.977 91.9597C454.906 89.4193 455.371 86.3213 455.371 82.6656C455.371 79.3197 455.03 76.3147 454.349 73.6503C453.729 70.9241 452.676 68.6005 451.189 66.6798C449.702 64.759 447.719 63.3029 445.24 62.3115C442.824 61.2582 439.819 60.7315 436.225 60.7315H425.816V102.555ZM411.224 48.4633H439.85C444.125 48.4633 448.091 49.1449 451.746 50.508C455.464 51.8711 458.655 53.9158 461.319 56.6421C464.045 59.3684 466.152 62.7762 467.639 66.8656C469.188 70.955 469.963 75.757 469.963 81.2715C469.963 86.1044 469.343 90.5656 468.104 94.655C466.865 98.7444 464.975 102.276 462.434 105.25C459.956 108.224 456.827 110.579 453.047 112.314C449.33 113.987 444.931 114.823 439.85 114.823H411.224V48.4633ZM550.22 70.7692C549.972 69.0962 549.415 67.5782 548.547 66.2151C547.68 64.79 546.595 63.5507 545.294 62.4974C543.993 61.4441 542.506 60.6386 540.833 60.0809C539.222 59.4613 537.518 59.1515 535.721 59.1515C532.437 59.1515 529.649 59.8021 527.357 61.1033C525.064 62.3425 523.205 64.0464 521.78 66.2151C520.355 68.3217 519.302 70.7382 518.62 73.4645C518.001 76.1907 517.691 79.0099 517.691 81.9221C517.691 84.7103 518.001 87.4366 518.62 90.1009C519.302 92.7033 520.355 95.0578 521.78 97.1644C523.205 99.2711 525.064 100.975 527.357 102.276C529.649 103.515 532.437 104.135 535.721 104.135C540.183 104.135 543.652 102.772 546.131 100.046C548.671 97.3193 550.22 93.7256 550.778 89.2644H564.905C564.533 93.4158 563.573 97.1644 562.024 100.51C560.475 103.856 558.43 106.706 555.89 109.061C553.349 111.415 550.375 113.212 546.967 114.451C543.559 115.691 539.811 116.31 535.721 116.31C530.641 116.31 526.056 115.443 521.966 113.708C517.939 111.911 514.531 109.464 511.743 106.366C508.954 103.268 506.817 99.6429 505.33 95.4915C503.843 91.2782 503.099 86.755 503.099 81.9221C503.099 76.9652 503.843 72.3801 505.33 68.1668C506.817 63.8915 508.954 60.1739 511.743 57.0139C514.531 53.8539 517.939 51.3755 521.966 49.5786C526.056 47.7817 530.641 46.8833 535.721 46.8833C539.377 46.8833 542.816 47.41 546.038 48.4633C549.322 49.5166 552.234 51.0657 554.774 53.1104C557.377 55.0931 559.514 57.5715 561.187 60.5456C562.86 63.5198 563.914 66.9276 564.347 70.7692H550.22ZM591.599 89.1715H608.793L600.428 64.8209H600.242L591.599 89.1715ZM592.993 48.4633H607.956L632.771 114.823H617.622L612.603 100.046H587.788L582.583 114.823L567.899 114.823L592.993 48.4633ZM644.647 60.7315L624.757 60.7315V48.4633L679.128 48.4633V60.7315H659.239V114.823H644.647V60.7315ZM686.78 48.4633H736.41V60.7315L701.371 60.7315V74.9515H733.529V86.2903H701.371V102.555H737.154V114.823H686.78V48.4633ZM761.638 78.4833L777.624 78.4833C780.97 78.4833 783.479 77.7397 785.152 76.2527C786.825 74.7656 787.661 72.3492 787.661 69.0033C787.661 65.7813 786.825 63.4578 785.152 62.0327C783.479 60.5456 780.97 59.8021 777.624 59.8021L761.638 59.8021V78.4833ZM747.046 48.4633L782.828 48.4633C785.803 48.4633 788.467 48.959 790.821 49.9504C793.238 50.8798 795.283 52.1809 796.956 53.8539C798.69 55.5268 799.992 57.4786 800.859 59.7092C801.788 61.8778 802.253 64.2323 802.253 66.7727C802.253 70.6762 801.417 74.0531 799.744 76.9033C798.133 79.7535 795.468 81.9221 791.751 83.4092V83.595C793.548 84.0907 795.035 84.8652 796.212 85.9186C797.389 86.9099 798.35 88.1182 799.093 89.5433C799.837 90.9064 800.363 92.4244 800.673 94.0974C801.045 95.7703 801.293 97.4433 801.417 99.1162C801.479 100.17 801.541 101.409 801.603 102.834C801.665 104.259 801.757 105.715 801.881 107.202C802.067 108.689 802.315 110.114 802.625 111.477C802.997 112.779 803.523 113.894 804.205 114.823H789.613C788.808 112.717 788.312 110.207 788.126 107.295C787.94 104.383 787.661 101.595 787.29 98.9303C786.794 95.4605 785.741 92.9201 784.13 91.3091C782.519 89.6982 779.885 88.8927 776.23 88.8927H761.638V114.823L747.046 114.823V48.4633ZM814.12 48.4633H828.712V114.823H814.12V48.4633ZM841.53 48.4633L856.029 48.4633L883.725 92.9821H883.911V48.4633H897.574V114.823H882.982L855.378 70.3974H855.193V114.823H841.53V48.4633ZM958.377 107.295C955.774 110.641 952.893 112.995 949.733 114.359C946.573 115.66 943.382 116.31 940.16 116.31C935.08 116.31 930.494 115.443 926.405 113.708C922.378 111.911 918.97 109.464 916.182 106.366C913.393 103.268 911.256 99.6429 909.769 95.4915C908.282 91.2782 907.538 86.755 907.538 81.9221C907.538 76.9652 908.282 72.3801 909.769 68.1668C911.256 63.8915 913.393 60.1739 916.182 57.0139C918.97 53.8539 922.378 51.3755 926.405 49.5786C930.494 47.7817 935.08 46.8833 940.16 46.8833C943.568 46.8833 946.852 47.41 950.012 48.4633C953.234 49.4547 956.115 50.9417 958.656 52.9245C961.258 54.9072 963.396 57.3547 965.069 60.2668C966.741 63.179 967.764 66.5249 968.136 70.3045H954.194C953.327 66.5868 951.654 63.7986 949.176 61.9398C946.697 60.0809 943.692 59.1515 940.16 59.1515C936.876 59.1515 934.088 59.8021 931.796 61.1033C929.503 62.3425 927.644 64.0464 926.219 66.2151C924.794 68.3217 923.741 70.7382 923.059 73.4645C922.44 76.1907 922.13 79.0099 922.13 81.9221C922.13 84.7103 922.44 87.4366 923.059 90.1009C923.741 92.7033 924.794 95.0578 926.219 97.1644C927.644 99.2711 929.503 100.975 931.796 102.276C934.088 103.515 936.876 104.135 940.16 104.135C944.993 104.135 948.711 102.927 951.313 100.51C953.978 98.0319 955.527 94.4691 955.96 89.8221H941.276V78.948L969.158 78.948V114.823H959.864L958.377 107.295Z" fill="white"/>
</svg>
